<?xml version="1.0" standalone="no"?>
<!DOCTYPE svg PUBLIC "-//W3C//DTD SVG 20010904//EN"
 "http://www.w3.org/TR/2001/REC-SVG-20010904/DTD/svg10.dtd">
<svg version="1.0" xmlns="http://www.w3.org/2000/svg"
 width="626.000000pt" height="626.000000pt" viewBox="0 0 626.000000 626.000000"
 preserveAspectRatio="xMidYMid meet">

<g transform="translate(0.000000,626.000000) scale(0.100000,-0.100000)"
fill="#000000" stroke="none">
<path d="M0 3130 l0 -3130 3130 0 3130 0 0 3130 0 3130 -3130 0 -3130 0 0
-3130z m2560 2000 l0 -570 285 0 285 0 0 285 0 285 285 0 285 0 0 285 0 285
855 0 855 0 0 -860 0 -860 -285 0 -285 0 0 -285 0 -285 -285 0 -285 0 0 -280
0 -280 263 0 c144 0 272 -3 284 -6 l23 -6 2 -280 3 -280 280 -1 280 -2 3 -858
2 -857 -855 0 -855 0 0 285 0 285 -285 0 -285 0 0 285 0 285 -285 0 -285 0 0
-570 0 -570 -855 0 -855 0 0 2570 0 2570 855 0 855 0 0 -570z"/>
</g>
</svg>
